<?xml version="1.0" encoding="utf-8"?>
<!-- Generator: Adobe Illustrator 23.0.2, SVG Export Plug-In . SVG Version: 6.00 Build 0)  -->
<svg version="1.1" id="圖層_1" xmlns="http://www.w3.org/2000/svg" xmlns:xlink="http://www.w3.org/1999/xlink" x="0px" y="0px"
	 viewBox="0 0 522.5 123" style="enable-background:new 0 0 522.5 123;" xml:space="preserve">
<style type="text/css">
	.st0{fill:#D70C18;}
	.st1{fill:#FFFFFF;}
	.st2{fill:#595757;}
	.st3{fill:#009FD1;}
	.st4{fill:none;stroke:#595757;stroke-miterlimit:10;}
</style>
<title>cwef-logo-w</title>
<g>
	<rect x="2.9" y="7.4" class="st0" width="237" height="88.9"/>
	<path class="st1" d="M62.8,21.4c0.4,1.6-0.1,3.2-1.4,4.2c-3.5,1.7-7.3,2.8-10.6,4.7c-6.7,1.3-12.9,3.6-19.4,5.2
		c-2.5,0.5-5-0.4-6.6-2.4c0.4-1.5-1.8-2.6-0.2-4c3-0.3,5.3-1.1,8.5-0.9c3.2-2.6,6.9-3,11-3.5c0.7-0.9,1.8-0.8,2.5-1.4
		c1.8-1.4,4.1-1.9,5.5-3.7c2-1.6,4.7-1.4,7.2-1C60.6,19.4,62.3,19.8,62.8,21.4"/>
	<path class="st1" d="M111.2,43.9c0.5-1.3,0.4-2.7-0.1-3.9c-0.1-0.8,0.4-1.4-0.4-1.7c-1.4-1-2.7,0.6-4.1,0.8c-1.9,1-3.2,3.3-5.5,3.8
		c-1.7,2.2-4.2,3-6.4,4.4c-2.8,0.7-5.7,0.5-8.4-0.5c-0.6-1.1-2-0.5-2.8-1.2c-2-1.3-4.7-1.3-6.1-3.5c-0.9-1.6-3.5-1.6-3-3.8
		c0.9-0.8,2.1-1.3,3.3-1.4c4.1-0.8,8.5-0.2,12.4-1.5c2.2-0.6,4.6-1.1,6.8-1.9c0.8-0.9,2.6-0.3,3.2-1.6c1.4-0.4,2.9-0.6,4.4-0.7
		c1.2-1,3.1-0.4,4.2-1.6c2.4,0,4.2-1.6,6.8-1.4c1.9-1.9,4.8-1.1,7.1-2.1c3.3-1,6.9-3.5,10.6-1.5h1.5c2.5,0.6,5.8,0.6,7.1,3.2
		c0.2,1.7-1,3.2-1.7,4.7c-2.4,1.4-6.4,2.3-8.9,0.3c-2.9-1.9-6.6-0.8-9.6,0.1c-0.8,0.9-2.2,0.9-2.7,2.3c0.1,1.4-0.2,3,0.3,4.2
		c1.1,2.4-0.4,4.7,0.7,7.1c0.5,3.2,1.4,7.7,1.3,11.3c0,5.4,0.4,10.9,1.2,16.3c0.3,1.8,1,3.8,1.3,6c1.1,1.3,0.1,3,0.8,4.5
		c-1.2,3.1-0.1,7.6-3.7,9.2c-1.8,2-5.4,1.6-7.7,0.9c-1.6-0.5-2-2.2-3.1-3.1c0-2.1-1.5-4-0.7-6.4c1.2-13.6,2.4-26.4,1.7-39.9"/>
	<path class="st1" d="M45.2,37.4c1,1.3,1.8,2.8,2.4,4.4c1.2,1.3,2.7-0.2,4-0.3c2.1-2.2,4.8-5,8.6-4.7c1.5,0.6,3.5,0.5,4.3,2.1
		c0.6,1,0.6,2.2,0.2,3.2C63.3,45,60,46,57.6,47.7c-1.9,1-4.4,1.7-5.4,3.8c-0.1,3.4,2.7,6.1,4.8,8c3.2,3.4,6.2,8.5,10.6,10.5
		c2.4,1.4,4.2,4.1,7.2,4.8c0.7,0.6,1.9,0.9,2.6,1.6c1.3,0.2,1.9,2.1,3.5,1.6c2.8,1.9,5.6,3.8,8.9,4.4c0.8,0.6,1.9,1.1,2.4,1.8
		c1.1,0.2,1.5,1.3,2.1,2.1c0.3,0.9-0.5,1.7-0.7,2.4c-1.7,1.6-4.2,1-6.1,2c-5.8,0.2-12.4,1.7-18.2,0.5l-6.5-5
		c-4.1-5.1-7.3-10.7-11.3-15.8c-0.5-1.2-2.2-1.7-2.7-3c-2-1.3-2.7-3.7-5.4-4c-1,1.5-1.4,3.3-1.4,5.1c-0.7,1.4-0.4,3.5-1.2,5
		c-0.9,1-0.5,2.5-1.4,3.4c-0.1,1.2-0.9,1.5-1,2.7c-2,4.6-5.7,8.4-9.5,11.6c-3.3,0.7-6.2,3.1-9.8,1.2c-2.1-0.2-4-1.6-4.8-3.5
		c0.5-1.1-0.9-1.4-0.9-2.3c0.6-1.4-1.3-2.8,0.6-3.7c0.2-0.8,0.7-1.5,1.5-1.8c1.7-0.3,3.5-0.3,4.8,1.1c0.6,0.2,1.1-0.4,1.5-0.6
		c0.1-0.9,1.5-1,1.4-2c1.6-1.4,2.8-3.1,3.4-5.1c2.1-2.2,2.4-5.4,1.5-8.5c-2.2-0.2-4.5,0.9-6.8,0.2c-1.5-1.1-3.8-1.7-4.5-3.4
		c-1.1-1.1-1.8-2.5-2.1-4c0.6-1.8,3.1-1.2,4.5-1.5c1.3-0.5,2.8-0.7,4.1-1.3c3.3-0.7,5.2-3.6,8.6-4.1c2-1.2,4.8-3,4.4-5.8
		c-1-2.3,0.6-4.3,0.2-6.8c0.4-1.1,1.3-2,2.4-2.5c1.2-0.3,2.7,0.2,4-0.4C43.8,37.3,44.7,36.9,45.2,37.4"/>
	<path class="st1" d="M148.3,54.2c2.7,3,5.7,6.5,3.8,10.9c-0.2,1.5-2.3,1-2.4,2.5c-3,0.6-6,0.4-8.9-0.5c-0.1-1.1-0.8-1.4-1.7-2
		c-3.4-3.1-6.1-7.4-4.5-11.7c3.4-2.8,8.1-0.2,12,0C147,53.8,147.6,54.1,148.3,54.2"/>
	<path class="st1" d="M195,67c-0.1,0.2-0.2,0.5-0.4,0.6l-5.1,0.1l-0.2,0.2c-0.2,1.4-0.1,3-0.1,4.5l0.2,0.2h4.4
		c0.1,0.1,0.4,0.2,0.4,0.4s-0.1,0.3-0.1,0.5l-0.4,0.2h-4.2c-0.1,0.1-0.2,0.1-0.3,0.2v4.5c0,0.3,0.3,0.2,0.5,0.3h4.2
		c0.1,0.1,0.4,0.2,0.4,0.4s0,0.4-0.3,0.5c-1.6,0.1-3.1-0.1-4.7,0.2l-0.2,0.2l0.1,4.3c0.4,0.2,0.8,0.2,1.2,0.2
		c1.4-0.1,2.9-0.1,4.3,0.1c0.2,0.1,0.2,0.4,0.1,0.6l-0.2,0.2c-4.3,0.1-8.5,0-12.8,0c-0.8,0-1.5-0.4-1.9-1c-0.2-1.4-0.2-2.7-0.2-4.1
		V69.5l0,0c-0.7,0.6-1.1,1.6-2,2.1c-0.3,0-0.6,0-0.8-0.2c-0.2-0.2-0.2-0.5-0.1-0.7c1.8-2.5,3.1-5.3,3.9-8.3c0.4-0.6,1.1-0.6,1.7-0.5
		c0.4,0.1,0.8,0.4,0.9,0.8v0.5c-0.7,1.1-1.2,2.2-1.7,3.3l0.1,0.1h4.7c0.3-0.9,0.8-1.8,1.4-2.5c0.6-0.8,0.8-2.1,2-2.2
		c0.6,0,1.2,0.2,1.6,0.7c0.1,0.5-0.1,0.9-0.5,1.2c-0.9,0.8-1.7,1.7-2.4,2.7l0.1,0.1l6.2,0.1"/>
	<path class="st1" d="M199.4,67.2c0.2-0.2,0.3-0.5,0.6-0.6c4.4-0.1,7.4-0.2,11.9-0.1c0.5-0.3,1.2-0.2,1.7-0.3l5.8-0.1
		c0.5-0.3,0.1-1,0.3-1.5c0.2-0.9-0.6-2.6,0.8-2.9c0.7-0.1,1.6-0.2,1.9,0.6V66l0.1,0.2c2.6,0.1,5,0,7.4,0.1c0.1,0.1,0.3,0.2,0.3,0.3
		s0,0.6-0.3,0.6c-2.3,0.2-4.8,0-7.2,0.1c-0.1,0.1-0.2,0-0.2,0.1l-0.1,0.2c-0.1,1.7,0,3-0.1,4.7l0.2,0.2l6.1,0.1
		c0.2,0.2,0.5,0.4,0.3,0.7l-0.3,0.3l-6.1,0.1h-9.1c-0.2-0.2-0.5-0.3-0.4-0.7c0.1-0.2,0.3-0.4,0.6-0.4h5.7c0.6-0.2,0.2-1.1,0.4-1.5
		v-3.6l-0.3-0.2c-2.4,0-4.6,0-7,0c-0.1-0.1-0.2-0.1-0.4-0.1c-0.2,0.2-0.4,0.4-0.7,0.4l-10.8,0.1c-0.2,0-0.5-0.1-0.7-0.1"/>
	<path class="st1" d="M172.8,62.3c0.1,1,0.1,2,0.1,2.9l0.3,0.2c1.6,0.2,3.2-0.2,4.7,0.1c0.2,0.2,0.2,0.3,0.1,0.6
		c-0.1,0.2-0.3,0.3-0.5,0.3l-9.5,0.1h-3.8c-0.2-0.1-0.3-0.2-0.4-0.4c0-0.2,0.1-0.5,0.3-0.6c1.8-0.1,3.9,0,5.7-0.1
		c0.2,0,0.3-0.2,0.4-0.3c0.3-1.1-0.7-3.2,1-3.4C171.7,61.9,172.5,61.7,172.8,62.3"/>
	<path class="st1" d="M210.7,63.1c0.1,0,0.3,0.1,0.3,0.2s0.1,0.6-0.3,0.7l-0.9,0.1h-8.7c-0.2-0.1-0.3-0.2-0.4-0.4
		c-0.1-0.2,0-0.4,0.2-0.5c1.1-0.4,2.3,0,3.4-0.1C206.4,63.1,208.7,63.1,210.7,63.1"/>
	<path class="st1" d="M169.7,67c0.3,0.2,0.5,0.6,0.3,1c-0.1,0.9-1.5,1.6-0.6,2.6c0.4,0.8,1.4,1.6,1.6,2.4c0.1,0.1-0.1,0.3-0.1,0.4
		c-0.2,0.3-0.6,0.4-1,0.3c-0.7-0.6-1.2-1.3-1.9-1.9c-0.3,0.1-0.5,0.3-0.6,0.5c-0.8,1-1.5,2.3-2.7,2.8c-0.3,0-0.6-0.2-0.8-0.5v-0.4
		c1.7-2.2,2.6-4.7,3.8-7C168.4,66.7,169.1,66.7,169.7,67"/>
	<path class="st1" d="M176.6,67.9c0.1,0.9-0.7,1.6-1,2.4c0.4,1.2,1,2.4,1.7,3.5c0.1,0.2,0,0.4-0.1,0.6c-0.3,0.2-0.7,0.3-1,0.2
		c-0.6-0.7-1.3-1.4-1.8-2.1c-0.8,0.4-0.9,2.1-2.2,1.5c-0.3-0.2-0.4-0.5-0.2-0.8c1-1.7,1.8-3.5,2.2-5.4c0.2-0.3,0.5-0.5,0.9-0.6
		C175.6,67.2,176.3,67.3,176.6,67.9"/>
	<path class="st0" d="M186.7,68c0,1.5,0,3.1-0.1,4.3c-1.3,0.2-2.7,0.2-4,0.1l-0.1-0.1V68c0-0.5,0.5-0.2,0.8-0.3c1.1,0,2.2,0,3.2,0
		L186.7,68z"/>
	<path class="st1" d="M210.6,70.3c0.2,0.1,0.5,0.2,0.5,0.5s-0.2,0.5-0.4,0.6h-0.5h-8.9c-0.2-0.1-0.3-0.2-0.5-0.3
		c-0.1-0.3,0.1-0.7,0.4-0.8h0.2L210.6,70.3z"/>
	<path class="st1" d="M210.5,74c0.2,0.1,0.3,0.2,0.4,0.3c0.1,0.2,0,0.4-0.1,0.5c-0.2,0.2-0.4,0.3-0.7,0.2h-9.1
		c-0.3-0.1-0.4-0.5-0.3-0.7c0.1-0.2,0.4-0.2,0.7-0.3C204.5,73.9,207.4,73.9,210.5,74"/>
	<path class="st0" d="M186.6,73.7l-0.1,4.8c-1.3,0.1-2.7,0.1-4,0l-0.1-0.1v-4.6c0.1-0.1,0.2-0.1,0.4-0.2
		C184.1,73.5,185.3,73.5,186.6,73.7"/>
	<path class="st1" d="M172.6,74.4c0.7,0.7,0.1,1.5,0.4,2.4c0.1,0.2,0.3,0.1,0.5,0.2h4.5c0.2,0.1,0.4,0.2,0.5,0.4
		c0,0.3-0.2,0.5-0.4,0.6l-4.2,0.1c-0.3,0.1,0,0.3,0,0.5c1.2,1.4,2.7,2.7,4.3,3.7c0.2,0.4-0.1,0.7-0.4,0.8h-0.7
		c-1.5-0.9-2.9-1.9-4.2-3l-0.1,0.1c0.2,1.9,0.3,3.8,0.2,5.7c-0.3,0.7-1.1,0.7-1.8,0.6c-0.4-0.1-0.7-0.3-0.8-0.6l-0.1-0.5
		c-0.1-1.8,0.1-3.7,0.4-5.5c-0.4-0.3-0.4,0.3-0.7,0.5c0,0.2-0.3,0.2-0.3,0.4c-0.8,0.9-1.6,1.8-2.6,2.6c0,0.3-0.4,0.3-0.5,0.4
		c-0.6,0.5-1.4,1.6-2.4,1.1c-0.1-0.1-0.2-0.4-0.2-0.6c0.1-0.3,0.5-0.5,0.8-0.8c1.7-1.5,3.1-3.2,4.2-5.2c0-0.1,0-0.2-0.1-0.2
		c-1.6-0.1-3.2,0-4.9-0.1c-0.2-0.2-0.4-0.5-0.2-0.7l0.4-0.2l5.7-0.1c0.2,0,0.3-0.2,0.4-0.3c0.2-0.9-0.4-2.1,0.6-2.5
		C171.3,74.1,172.1,74,172.6,74.4"/>
	<path class="st1" d="M218.5,75c0.6,0.5,0.1,1.4,0.2,2.1c0,2.6,0,4.8,0.1,7.2c0.1,0.3,0.4,0.4,0.7,0.5h3.8c1-0.4,1.8-1.3,1.9-2.4
		c0.2-0.4,0.6-0.7,1.1-0.7c0.6-0.1,1.2,0.2,1.6,0.7c0.1,1.2-0.5,2.3-1.4,3c-2.4,1-5.5,0.4-8.1,0.5c-0.8,0-1.6-0.5-2-1.2l-0.1-0.5
		c0-2.7,0.1-5.9,0.1-8.7c0.1-0.4,0.6-0.6,0.9-0.7C217.7,74.7,218.1,74.8,218.5,75"/>
	<path class="st1" d="M223.1,76.6c0.7,0.9,1.4,1.9,1.9,3c0.1,0.3,0,0.6-0.2,0.8c-0.4,0.4-1,0.5-1.5,0.4c-1.5-0.2-1.1-2-1.8-3
		c-0.2-0.9-1.3-1.6-1.1-2.6c0.2-0.4,0.8-0.4,1.3-0.3C222.1,75.4,222.6,76,223.1,76.6"/>
	<path class="st1" d="M228.5,77.5c0.8,1,1.6,1.9,2.3,2.9c0.1,0.4,0,0.8-0.2,1.1c-0.5,0.4-1.2,0.6-1.8,0.4c-0.8-0.4-0.9-1.4-1.2-2.2
		c-0.5-1-1.2-2-1.9-2.9c-0.1-0.3,0-0.6,0.2-0.8c0.3-0.2,0.7-0.2,1-0.1C227.6,76.3,228,77.1,228.5,77.5"/>
	<path class="st1" d="M214.3,77c0,1.3-0.1,2.6-0.4,3.8c-0.4,1.1-0.1,2.8-1.5,3.2c-0.5,0-1,0-1.5-0.2c0,0.7-0.4,1.3-1,1.6l-1,0.3
		c-2.3,0.1-4.5,0.1-6.8-0.1c-0.5-0.1-0.9-0.4-1.2-0.8l-0.2-0.4l0.1-5.8c0.1-0.5,0.4-0.9,0.9-1.2c0.7-0.3,1.5-0.4,2.3-0.3h5.2
		c2.6,0.3,1.2,3.2,1.7,4.9c0.2,0.1,0.3-0.2,0.4-0.4c0.7-1.4,1.1-3,1.3-4.6c0.1-0.4,0.6-0.4,0.9-0.5C213.7,76.5,214,76.7,214.3,77"/>
	<path class="st0" d="M208.1,78.4l-0.1,6.1l-0.2,0.2h-4.4l-0.1-0.1c0-2,0-4.2,0.1-6.1c0.1-0.2,0.3-0.1,0.5-0.2h4.1L208.1,78.4z"/>
	<path class="st0" d="M186.6,79.7L186.6,79.7c0,1.6,0.2,3.1,0.1,4.5l-0.1,0.1h-3.9l-0.1-0.1c0-1.5-0.1-3,0-4.4
		c0-0.1,0.1-0.2,0.2-0.2C184,79.5,185.3,79.6,186.6,79.7"/>
	<rect x="3.4" y="44.1" class="st1" width="29.4" height="1.3"/>
	<rect x="65.2" y="44.1" class="st1" width="13.3" height="1.3"/>
	<rect x="102.3" y="44.1" class="st1" width="8.6" height="1.3"/>
	<rect x="121.5" y="44.4" class="st1" width="118" height="1.3"/>
	<rect x="2.5" y="67.7" class="st1" width="19.9" height="1.3"/>
	<rect x="43.1" y="67.7" class="st1" width="5" height="1.3"/>
	<rect x="66.9" y="67.7" class="st1" width="41.6" height="1.3"/>
	<rect x="123.6" y="67.7" class="st1" width="16.8" height="1.3"/>
	<rect x="151.6" y="67.7" class="st1" width="9.7" height="1.3"/>
	<rect x="231.8" y="67.7" class="st1" width="7.8" height="1.3"/>
	<rect x="3.4" y="77.2" class="st1" width="19.4" height="1.3"/>
	<rect x="40.7" y="77.2" class="st1" width="13.3" height="1.3"/>
	<rect x="82.6" y="77.2" class="st1" width="25.4" height="1.3"/>
	<rect x="125" y="77.2" class="st1" width="36.3" height="1.3"/>
	<rect x="231.8" y="77.2" class="st1" width="7.8" height="1.3"/>
	<rect x="3.4" y="82.2" class="st1" width="8.4" height="1.3"/>
	<rect x="38.3" y="82.2" class="st1" width="19.2" height="1.3"/>
	<rect x="92.9" y="82.2" class="st1" width="14.2" height="1.3"/>
	<rect x="126.5" y="82.2" class="st1" width="35.1" height="1.3"/>
	<rect x="231.2" y="82.2" class="st1" width="8.4" height="1.3"/>
	<rect x="3.4" y="90.7" class="st1" width="8.7" height="1.3"/>
	<rect x="32.2" y="90.7" class="st1" width="32.7" height="1.3"/>
	<rect x="94.7" y="90.7" class="st1" width="13" height="1.3"/>
	<rect x="125.9" y="90.7" class="st1" width="113.6" height="1.3"/>
	<g>
		<g>
			<path class="st2" d="M14.8,104.9v3.5h-0.4c-0.1-0.6-0.4-1.2-0.7-1.8c-0.3-0.4-0.6-0.6-1-0.8c-0.4-0.1-0.8-0.2-1.3-0.2h-1v10
				c0,0.4,0,0.8,0.1,1.2c0.1,0.2,0.2,0.3,0.4,0.4c0.3,0.1,0.6,0.2,0.9,0.2h0.4v0.4H5.6v-0.3H6c0.3,0,0.6-0.1,0.9-0.2
				c0.2-0.1,0.3-0.3,0.4-0.5c0.1-0.4,0.1-0.8,0.1-1.2v-10H6.5c-0.7-0.1-1.4,0.1-1.9,0.6c-0.6,0.6-1,1.4-1,2.2H3.2v-3.6H14.8z"/>
			<path class="st2" d="M19.7,116.5c-0.8,0.8-1.8,1.3-2.9,1.4c-0.5,0-0.9-0.2-1.3-0.5c-0.3-0.3-0.5-0.8-0.5-1.2
				c0-0.7,0.3-1.4,0.9-1.8c1.2-0.9,2.5-1.6,3.8-2.2v-0.9c0-0.4,0-0.9-0.1-1.3c-0.1-0.2-0.2-0.3-0.4-0.4c-0.2-0.1-0.4-0.2-0.7-0.2
				c-0.4,0-0.7,0.1-1,0.3c-0.2,0.1-0.2,0.2-0.2,0.4c0,0.2,0.1,0.4,0.3,0.5c0.2,0.2,0.3,0.5,0.4,0.8c0,0.3-0.1,0.6-0.4,0.8
				c-0.2,0.2-0.6,0.3-0.9,0.3c-0.4,0-0.7-0.1-1-0.4c-0.3-0.2-0.4-0.5-0.4-0.8c0-0.5,0.2-1,0.5-1.3c0.4-0.5,0.9-0.8,1.5-1
				c0.6-0.2,1.3-0.3,2-0.3c0.7,0,1.4,0.2,2,0.5c0.4,0.3,0.8,0.7,1,1.2c0.1,0.6,0.2,1.2,0.1,1.8v3.5c0,0.3,0,0.5,0,0.8
				c0,0.1,0.1,0.2,0.1,0.2c0.1,0,0.1,0.1,0.2,0.1c0.2,0,0.3-0.1,0.5-0.4l0.3,0.2c-0.3,0.4-0.6,0.7-1,1c-0.3,0.2-0.8,0.3-1.2,0.3
				c-0.4,0-0.9-0.1-1.2-0.4C19.9,117.3,19.7,116.9,19.7,116.5z M19.7,115.8v-3c-0.6,0.4-1.2,0.9-1.7,1.5c-0.2,0.3-0.4,0.6-0.4,1
				c0,0.3,0.1,0.6,0.3,0.8c0.2,0.2,0.4,0.3,0.7,0.2C19,116.3,19.4,116.2,19.7,115.8L19.7,115.8z"/>
			<path class="st2" d="M28.3,108.9v7.1c0,0.4,0,0.8,0.2,1.2c0.2,0.2,0.5,0.3,0.9,0.3v0.4h-4.8v-0.3c0.3,0,0.6-0.1,0.9-0.3
				c0.2-0.4,0.2-0.8,0.2-1.2v-5.3c0.1-0.4,0-0.8-0.2-1.2c-0.2-0.2-0.5-0.3-0.9-0.3v-0.4H28.3z M27,104.6c0.4,0,0.8,0.1,1,0.4
				c0.3,0.3,0.4,0.6,0.4,1c0,0.4-0.2,0.7-0.4,1c-0.6,0.6-1.5,0.6-2.1,0c-0.3-0.3-0.4-0.6-0.4-1c0-0.4,0.2-0.7,0.4-1
				C26.2,104.8,26.6,104.6,27,104.6z"/>
			<path class="st2" d="M39.5,118.1l-2.5-6.6l-2.4,6.6h-0.5l-2.4-6.5c-0.2-0.7-0.5-1.3-0.9-1.9c-0.2-0.2-0.4-0.4-0.7-0.4v-0.4h4.5
				v0.3c-0.2,0-0.4,0-0.6,0.1c-0.1,0.1-0.2,0.2-0.2,0.3c0.1,0.3,0.2,0.7,0.3,1l1.3,3.5l1.3-3.5l-0.1-0.2c-0.1-0.3-0.3-0.6-0.5-0.9
				c-0.2-0.2-0.4-0.2-0.7-0.3v-0.4H40v0.3c-0.2,0-0.5,0-0.7,0.2c-0.1,0.1-0.2,0.2-0.1,0.3c0,0.3,0.1,0.6,0.3,0.9l1.3,3.5l1.2-3.2
				c0.1-0.3,0.2-0.6,0.2-0.9c0-0.2-0.1-0.4-0.2-0.6c-0.2-0.1-0.5-0.2-0.7-0.2v-0.3h2.6v0.3c-0.3,0-0.5,0.1-0.7,0.3
				c-0.3,0.4-0.5,0.9-0.7,1.4l-2.5,7.1H39.5z"/>
			<path class="st2" d="M50,116.5c-0.8,0.8-1.9,1.3-3,1.4c-0.5,0-0.9-0.2-1.3-0.5c-0.3-0.3-0.5-0.8-0.5-1.2c0-0.7,0.3-1.4,0.9-1.8
				c1.2-0.9,2.5-1.6,3.9-2.2v-0.9c0-0.4,0-0.9-0.1-1.3c-0.1-0.2-0.2-0.3-0.4-0.4c-0.2-0.1-0.4-0.2-0.7-0.2c-0.4,0-0.7,0.1-1,0.3
				c-0.1,0.1-0.2,0.2-0.2,0.4c0,0.2,0.1,0.4,0.3,0.5c0.2,0.2,0.3,0.5,0.4,0.8c0,0.3-0.1,0.6-0.3,0.8c-0.2,0.2-0.6,0.3-0.9,0.3
				c-0.4,0-0.7-0.1-1-0.4c-0.3-0.2-0.4-0.5-0.4-0.8c0-0.5,0.2-1,0.5-1.3c0.4-0.5,0.9-0.8,1.5-1c0.6-0.2,1.3-0.3,2-0.3
				c0.7,0,1.4,0.2,2,0.5c0.4,0.3,0.8,0.7,1,1.2c0.1,0.6,0.2,1.2,0.1,1.8v3.5c0,0.3,0,0.5,0,0.8c0,0.1,0.1,0.2,0.1,0.2
				c0.1,0.1,0.1,0.1,0.2,0.1c0.2,0,0.3-0.1,0.5-0.4l0.3,0.2c-0.3,0.4-0.6,0.7-1,1c-0.3,0.2-0.8,0.3-1.2,0.3c-0.4,0-0.8-0.1-1.2-0.4
				C50.2,117.3,50,116.9,50,116.5z M50,115.8v-3c-0.7,0.4-1.3,0.9-1.7,1.4c-0.2,0.3-0.4,0.6-0.4,1c0,0.3,0.1,0.6,0.3,0.8
				c0.2,0.2,0.4,0.3,0.7,0.2C49.3,116.3,49.7,116.2,50,115.8L50,115.8z"/>
			<path class="st2" d="M58.8,108.9v1.2c0.4-0.4,0.8-0.8,1.3-1.1c0.4-0.2,0.9-0.3,1.3-0.3c0.5,0,1,0.2,1.4,0.5
				c0.4,0.3,0.6,0.7,0.8,1.2c0.1,0.7,0.2,1.4,0.2,2.1v3.5c0,0.4,0,0.9,0.2,1.3c0.2,0.2,0.5,0.3,0.8,0.3v0.4h-4.5v-0.3
				c0.3,0,0.6-0.2,0.7-0.4c0.1-0.4,0.2-0.8,0.2-1.2v-4c0-0.5,0-0.9-0.1-1.4c0-0.2-0.1-0.3-0.3-0.4c-0.1-0.1-0.3-0.2-0.5-0.2
				c-0.6,0-1.1,0.4-1.5,1.2v4.8c0,0.4,0,0.9,0.2,1.3c0.2,0.2,0.4,0.3,0.7,0.3v0.4h-4.5v-0.3c0.3,0,0.6-0.1,0.8-0.4
				c0.1-0.4,0.2-0.8,0.2-1.2v-5c0-0.4,0-0.9-0.2-1.3c-0.2-0.2-0.5-0.3-0.8-0.3v-0.5H58.8z"/>
		</g>
		<path class="st2" d="M67.2,110.2l-0.5-2.8c-0.1-0.5-0.2-1.1-0.2-1.6c0-0.3,0.1-0.6,0.2-0.9c0.2-0.2,0.4-0.3,0.7-0.3
			c0.3,0,0.5,0.1,0.7,0.3c0.2,0.2,0.3,0.5,0.3,0.7c-0.1,0.6-0.1,1.2-0.2,1.7l-0.5,2.8H67.2z"/>
		<g>
			<path class="st2" d="M75.8,108.7l0.2,3h-0.3c-0.3-0.7-0.7-1.3-1.2-1.8c-0.3-0.3-0.8-0.5-1.2-0.5c-0.2,0-0.5,0.1-0.7,0.3
				c-0.2,0.2-0.3,0.4-0.3,0.6c0,0.2,0.1,0.4,0.2,0.5c0.5,0.5,1.1,1,1.7,1.3c0.7,0.4,1.3,1,1.9,1.7c0.3,0.4,0.4,1,0.4,1.5
				c0,0.5-0.1,1-0.4,1.5c-0.2,0.5-0.6,0.8-1,1.1c-0.5,0.3-1,0.4-1.5,0.4c-0.6,0-1.2-0.2-1.7-0.4c-0.1-0.1-0.3-0.1-0.4-0.1
				c-0.2,0-0.4,0.2-0.5,0.5h-0.3l-0.2-3.2h0.3c0.2,0.7,0.6,1.4,1.2,1.9c0.4,0.4,0.9,0.6,1.4,0.6c0.3,0,0.5-0.1,0.8-0.3
				c0.2-0.2,0.3-0.4,0.3-0.7c0-0.3-0.1-0.6-0.3-0.8c-0.4-0.4-0.8-0.7-1.3-1c-0.7-0.4-1.3-1-1.9-1.6c-0.4-0.5-0.6-1.1-0.6-1.7
				c0-0.7,0.3-1.3,0.7-1.9c0.5-0.6,1.3-0.9,2.1-0.8c0.5,0,1,0.1,1.4,0.4c0.1,0.1,0.3,0.1,0.4,0.1c0.1,0,0.2,0,0.3-0.1
				c0.1-0.1,0.2-0.3,0.3-0.4L75.8,108.7z"/>
			<path class="st2" d="M93.7,113.3l-0.5,4.6H81.7v-0.3h0.4c0.3,0,0.6-0.1,0.9-0.2c0.2-0.1,0.3-0.3,0.4-0.5c0.1-0.4,0.1-0.8,0.1-1.2
				v-8.5c0-0.4,0-0.8-0.1-1.2c-0.1-0.2-0.2-0.3-0.4-0.4c-0.3-0.1-0.6-0.2-0.9-0.2h-0.4v-0.4h6.9v0.4H88c-0.3,0-0.6,0.1-0.9,0.2
				c-0.2,0.1-0.3,0.3-0.4,0.5c-0.1,0.4-0.1,0.8-0.1,1.2v8.2c0,0.4,0,0.9,0.1,1.3c0.1,0.2,0.3,0.3,0.4,0.4c0.4,0.1,0.8,0.1,1.2,0.1
				h1.1c0.6,0,1.2-0.1,1.7-0.4c0.5-0.3,0.9-0.7,1.2-1.1c0.4-0.7,0.8-1.5,1-2.3L93.7,113.3z"/>
			<path class="st2" d="M102.9,113.1H98c0,1,0.4,2,1,2.8c0.4,0.5,1,0.8,1.6,0.8c0.4,0,0.7-0.1,1-0.3c0.4-0.3,0.7-0.7,1-1.2l0.3,0.2
				c-0.4,0.8-0.9,1.5-1.6,2.1c-0.6,0.4-1.3,0.6-2,0.6c-1.2,0.1-2.3-0.5-3-1.5c-0.6-0.9-0.8-1.9-0.8-3c-0.1-1.3,0.4-2.6,1.2-3.6
				c0.7-0.8,1.7-1.3,2.8-1.3c0.9,0,1.8,0.4,2.3,1.1C102.6,110.8,102.9,111.9,102.9,113.1z M100.6,112.4c0-0.7,0-1.4-0.2-2.1
				c-0.1-0.3-0.3-0.6-0.5-0.9c-0.2-0.1-0.3-0.2-0.5-0.2c-0.3,0-0.6,0.2-0.8,0.5c-0.4,0.7-0.6,1.5-0.6,2.3v0.3H100.6z"/>
			<path class="st2" d="M109.3,116.5c-0.8,0.8-1.8,1.3-2.9,1.4c-0.5,0-0.9-0.2-1.3-0.5c-0.3-0.3-0.5-0.8-0.5-1.2
				c0-0.7,0.3-1.4,0.9-1.8c1.2-0.9,2.5-1.6,3.8-2.2v-0.9c0-0.4,0-0.9-0.1-1.3c-0.1-0.2-0.2-0.3-0.4-0.4c-0.2-0.1-0.4-0.2-0.7-0.2
				c-0.4,0-0.7,0.1-1,0.3c-0.1,0.1-0.2,0.2-0.2,0.4c0,0.2,0.1,0.4,0.3,0.5c0.2,0.2,0.3,0.5,0.4,0.8c0,0.3-0.1,0.6-0.3,0.8
				c-0.3,0.2-0.6,0.3-0.9,0.3c-0.4,0-0.7-0.1-1-0.4c-0.3-0.2-0.4-0.5-0.4-0.8c0-0.5,0.2-1,0.6-1.3c0.4-0.5,0.9-0.8,1.5-1
				c0.6-0.2,1.3-0.3,2-0.3c0.7,0,1.4,0.2,2,0.5c0.5,0.3,0.8,0.7,1,1.2c0.1,0.6,0.2,1.2,0.1,1.8v3.5c0,0.3,0,0.5,0,0.8
				c0,0.1,0.1,0.2,0.2,0.2c0.1,0.1,0.1,0.1,0.2,0.1c0.2,0,0.3-0.1,0.5-0.4l0.3,0.2c-0.3,0.4-0.6,0.7-1,1c-0.3,0.2-0.8,0.3-1.2,0.3
				c-0.4,0-0.8-0.1-1.2-0.4C109.5,117.3,109.3,116.9,109.3,116.5z M109.3,115.8v-3c-0.7,0.4-1.2,0.9-1.7,1.4c-0.2,0.3-0.4,0.6-0.4,1
				c0,0.3,0.1,0.6,0.3,0.8c0.2,0.2,0.4,0.3,0.7,0.2C108.6,116.3,109,116.2,109.3,115.8L109.3,115.8z"/>
			<path class="st2" d="M123.1,104.9v10.3c0,0.4,0,0.8,0,1.2c0,0.2,0.1,0.4,0.3,0.5c0.2,0.1,0.5,0.2,0.7,0.2v0.3l-3.8,0.7v-1.4
				c-0.3,0.4-0.7,0.8-1.2,1.1c-0.4,0.2-0.8,0.3-1.2,0.3c-1.1,0-2.1-0.6-2.7-1.5c-0.5-0.9-0.8-1.9-0.8-3c0-0.9,0.2-1.8,0.5-2.6
				c0.3-0.7,0.7-1.3,1.3-1.7c0.5-0.4,1.2-0.6,1.9-0.6c0.4,0,0.8,0.1,1.1,0.2c0.4,0.2,0.8,0.5,1.1,0.9v-2.7c0-0.4,0-0.8-0.1-1.2
				c-0.1-0.2-0.2-0.3-0.3-0.4c-0.3-0.1-0.6-0.2-0.9-0.1v-0.4H123.1z M120.5,110.9c-0.5-0.9-1-1.3-1.7-1.3c-0.2,0-0.4,0.1-0.6,0.2
				c-0.3,0.3-0.5,0.6-0.6,1c-0.2,0.7-0.3,1.5-0.2,2.3c0,0.8,0.1,1.7,0.2,2.5c0.1,0.4,0.3,0.9,0.7,1.2c0.2,0.1,0.4,0.2,0.6,0.2
				c0.6,0,1.1-0.4,1.6-1.3L120.5,110.9z"/>
			<path class="st2" d="M129.1,108.9v7.1c0,0.4,0,0.8,0.2,1.2c0.2,0.2,0.5,0.3,0.9,0.3v0.4h-4.8v-0.3c0.3,0,0.6-0.1,0.9-0.3
				c0.2-0.4,0.2-0.8,0.2-1.2v-5.3c0-0.4,0-0.8-0.2-1.2c-0.2-0.2-0.5-0.3-0.8-0.3v-0.4H129.1z M127.8,104.6c0.8,0,1.5,0.6,1.5,1.5
				c0,0,0,0,0,0c0,0.4-0.2,0.7-0.4,1c-0.3,0.3-0.6,0.4-1,0.4c-0.4,0-0.7-0.2-1-0.4c-0.3-0.3-0.4-0.6-0.4-1c0-0.4,0.2-0.7,0.4-1
				C127.1,104.8,127.4,104.6,127.8,104.6L127.8,104.6z"/>
			<path class="st2" d="M135,108.9v1.2c0.4-0.4,0.8-0.8,1.3-1.1c0.4-0.2,0.9-0.3,1.4-0.3c0.5,0,1,0.2,1.4,0.5
				c0.4,0.3,0.6,0.7,0.8,1.2c0.1,0.7,0.2,1.4,0.1,2.1v3.5c0,0.4,0,0.9,0.2,1.3c0.2,0.2,0.5,0.3,0.8,0.3v0.4h-4.5v-0.3
				c0.3,0,0.6-0.2,0.7-0.4c0.1-0.4,0.2-0.8,0.2-1.2v-4c0-0.5,0-0.9-0.1-1.4c0-0.2-0.1-0.3-0.3-0.4c-0.1-0.1-0.3-0.2-0.4-0.2
				c-0.6,0-1.1,0.4-1.5,1.2v4.8c0,0.4,0,0.9,0.2,1.3c0.2,0.2,0.4,0.3,0.7,0.3v0.4h-4.5v-0.3c0.3,0,0.6-0.1,0.8-0.4
				c0.1-0.4,0.2-0.8,0.2-1.2v-5c0-0.4,0-0.9-0.2-1.3c-0.2-0.2-0.5-0.3-0.8-0.3v-0.5H135z"/>
			<path class="st2" d="M148.3,109h3v1h-1.7c0.3,0.2,0.5,0.5,0.6,0.8c0.4,0.9,0.3,1.9-0.3,2.7c-0.4,0.5-0.9,0.9-1.4,1.1
				c-0.5,0.2-1.1,0.4-1.6,0.4h-1.1c-0.3,0-0.5,0.1-0.7,0.3c-0.2,0.2-0.3,0.4-0.3,0.7c0,0.2,0.1,0.4,0.3,0.6c0.3,0.2,0.6,0.2,0.9,0.2
				h1.6c0.9-0.1,1.9,0.1,2.8,0.4c0.7,0.4,1.1,1.1,1.1,1.9c0,0.5-0.2,1-0.5,1.5c-0.3,0.5-0.8,0.8-1.3,1c-0.9,0.3-1.9,0.5-2.8,0.5
				c-0.7,0-1.5-0.1-2.2-0.2c-0.5-0.1-1-0.3-1.4-0.7c-0.3-0.2-0.4-0.5-0.4-0.9c0-0.3,0.1-0.6,0.3-0.8c0.4-0.3,0.8-0.5,1.2-0.6
				c-0.7-0.3-1.2-0.9-1.2-1.7c0-0.5,0.2-0.9,0.5-1.3c0.4-0.5,1-0.9,1.6-1.1c-0.7-0.2-1.4-0.7-1.9-1.2c-0.4-0.5-0.6-1.1-0.6-1.8
				c0-0.9,0.4-1.7,1.1-2.3c0.8-0.7,1.7-1,2.8-1C147.1,108.7,147.7,108.8,148.3,109z M146.1,119.2c-0.4,0-0.9,0-1.3,0.2
				c-0.3,0.1-0.5,0.4-0.6,0.8c0,0.4,0.2,0.7,0.6,0.9c0.7,0.3,1.4,0.5,2.1,0.4c0.7,0,1.4-0.1,2.1-0.3c0.4-0.1,0.7-0.5,0.8-1
				c0-0.1,0-0.3-0.1-0.4c-0.2-0.2-0.5-0.4-0.8-0.4C147.9,119.2,147,119.1,146.1,119.2L146.1,119.2z M146.6,109.3
				c-0.4,0-0.7,0.2-0.9,0.6c-0.3,0.7-0.5,1.5-0.4,2.3c-0.1,0.7,0.1,1.4,0.4,2c0.2,0.3,0.5,0.5,0.9,0.5c0.4,0,0.8-0.2,1-0.5
				c0.3-0.6,0.4-1.3,0.4-2c0.1-0.8-0.1-1.6-0.4-2.3C147.4,109.5,147,109.3,146.6,109.3L146.6,109.3z"/>
			<path class="st2" d="M166.2,113.4l3.5-8.5h5.3v0.4h-0.4c-0.3,0-0.6,0.1-0.9,0.2c-0.2,0.1-0.3,0.3-0.4,0.4
				c-0.1,0.4-0.1,0.8-0.1,1.2v8.5c0,0.4,0,0.8,0.1,1.2c0.1,0.2,0.2,0.3,0.4,0.4c0.3,0.1,0.6,0.2,0.9,0.2h0.4v0.4h-6.8v-0.3h0.4
				c0.3,0,0.6-0.1,0.9-0.2c0.2-0.1,0.3-0.3,0.4-0.5c0.1-0.4,0.1-0.8,0.1-1.2v-9.6l-5,11.8h-0.2l-5-11.7v9.1c0,0.4,0,0.8,0.1,1.2
				c0.1,0.3,0.3,0.6,0.5,0.8c0.4,0.2,0.8,0.3,1.3,0.3v0.3h-4.4v-0.3h0.1c0.3,0,0.5,0,0.8-0.1c0.2-0.1,0.4-0.2,0.6-0.4
				c0.1-0.2,0.3-0.4,0.3-0.7c0-0.1,0-0.4,0-1v-8.2c0-0.4,0-0.8-0.1-1.2c-0.1-0.2-0.2-0.3-0.4-0.4c-0.3-0.1-0.6-0.2-0.9-0.2h-0.4
				v-0.4h5.3L166.2,113.4z"/>
			<path class="st2" d="M181.2,116.5c-0.8,0.8-1.8,1.3-2.9,1.4c-1,0-1.7-0.7-1.8-1.7c0,0,0,0,0-0.1c0-0.7,0.3-1.4,0.9-1.8
				c1.2-0.9,2.5-1.6,3.8-2.2v-0.9c0-0.4,0-0.9-0.1-1.3c-0.1-0.2-0.2-0.3-0.4-0.4c-0.2-0.1-0.4-0.2-0.7-0.2c-0.4,0-0.7,0.1-1,0.3
				c-0.2,0.1-0.2,0.2-0.2,0.4c0,0.2,0.1,0.4,0.3,0.5c0.2,0.2,0.3,0.5,0.4,0.8c0,0.3-0.1,0.6-0.4,0.8c-0.2,0.2-0.6,0.3-0.9,0.3
				c-0.4,0-0.7-0.1-1-0.4c-0.3-0.2-0.4-0.5-0.4-0.8c0-0.5,0.2-1,0.5-1.3c0.4-0.5,0.9-0.8,1.5-1c0.6-0.2,1.3-0.3,2-0.3
				c0.7,0,1.4,0.2,2,0.5c0.4,0.3,0.8,0.7,1,1.2c0.1,0.6,0.2,1.2,0.1,1.8v3.5c0,0.3,0,0.5,0,0.8c0,0.1,0.1,0.2,0.1,0.2
				c0.1,0,0.1,0.1,0.2,0.1c0.2,0,0.3-0.1,0.5-0.4l0.3,0.2c-0.3,0.4-0.6,0.7-1,1c-0.3,0.2-0.8,0.3-1.2,0.3c-0.4,0-0.8-0.1-1.2-0.4
				C181.4,117.3,181.3,116.9,181.2,116.5z M181.2,115.8v-3c-0.7,0.4-1.2,0.9-1.7,1.4c-0.2,0.3-0.3,0.6-0.4,1c0,0.3,0.1,0.6,0.3,0.8
				c0.2,0.2,0.4,0.3,0.7,0.2C180.5,116.3,180.9,116.2,181.2,115.8L181.2,115.8z"/>
			<path class="st2" d="M192.1,109h3v1h-1.7c0.3,0.2,0.5,0.5,0.6,0.8c0.2,0.3,0.2,0.7,0.2,1.1c0,0.6-0.2,1.2-0.5,1.7
				c-0.4,0.5-0.9,0.9-1.4,1.1c-0.5,0.2-1.1,0.4-1.6,0.4h-1.1c-0.3,0-0.5,0.1-0.7,0.3c-0.2,0.2-0.3,0.4-0.3,0.7
				c0,0.2,0.1,0.4,0.3,0.6c0.2,0.2,0.5,0.2,0.9,0.2h1.6c0.9-0.1,1.9,0.1,2.8,0.4c0.7,0.4,1.1,1.1,1.1,1.9c0,0.5-0.2,1.1-0.5,1.5
				c-0.3,0.5-0.8,0.8-1.3,1c-0.9,0.3-1.9,0.5-2.8,0.5c-0.7,0-1.5-0.1-2.2-0.2c-0.5-0.1-1-0.3-1.4-0.7c-0.3-0.2-0.4-0.5-0.4-0.9
				c0-0.3,0.1-0.6,0.3-0.8c0.3-0.3,0.8-0.5,1.2-0.6c-0.7-0.3-1.2-0.9-1.2-1.7c0-0.5,0.2-0.9,0.5-1.3c0.4-0.5,1-0.8,1.6-1.1
				c-0.7-0.2-1.4-0.7-1.9-1.2c-0.4-0.5-0.6-1.1-0.6-1.8c0-0.9,0.4-1.7,1.1-2.3c0.8-0.7,1.7-1,2.7-1
				C190.9,108.7,191.5,108.8,192.1,109z M189.9,119.2c-0.4,0-0.9,0-1.3,0.2c-0.3,0.1-0.5,0.5-0.5,0.8c0,0.4,0.2,0.7,0.6,0.9
				c0.7,0.3,1.4,0.5,2.1,0.4c0.7,0,1.4-0.1,2.1-0.3c0.4-0.1,0.7-0.5,0.8-1c0-0.1,0-0.3-0.1-0.4c-0.2-0.2-0.5-0.4-0.8-0.4
				C191.7,119.2,190.8,119.1,189.9,119.2z M190.5,109.3c-0.4,0-0.7,0.2-0.9,0.6c-0.3,0.7-0.5,1.5-0.4,2.3c-0.1,0.7,0.1,1.4,0.4,2
				c0.2,0.3,0.5,0.5,0.9,0.5c0.4,0,0.8-0.2,1-0.5c0.3-0.6,0.4-1.3,0.4-2c0.1-0.8-0.1-1.6-0.4-2.3
				C191.2,109.5,190.9,109.3,190.5,109.3z"/>
			<path class="st2" d="M201.4,116.5c-0.8,0.8-1.8,1.3-2.9,1.4c-0.5,0-0.9-0.2-1.3-0.5c-0.3-0.3-0.5-0.8-0.5-1.2
				c0-0.7,0.3-1.4,0.9-1.8c1.2-0.9,2.5-1.6,3.8-2.2v-0.9c0-0.4,0-0.9-0.1-1.3c-0.1-0.2-0.2-0.3-0.4-0.4c-0.2-0.1-0.4-0.2-0.7-0.2
				c-0.4,0-0.7,0.1-1,0.3c-0.1,0.1-0.2,0.2-0.2,0.4c0,0.2,0.1,0.4,0.3,0.5c0.2,0.2,0.3,0.5,0.4,0.8c0,0.3-0.1,0.6-0.4,0.8
				c-0.2,0.2-0.6,0.3-0.9,0.3c-0.4,0-0.7-0.1-1-0.4c-0.3-0.2-0.4-0.5-0.4-0.8c0-0.5,0.2-1,0.6-1.3c0.4-0.5,0.9-0.8,1.5-1
				c0.6-0.2,1.3-0.3,2-0.3c0.7,0,1.4,0.2,2,0.5c0.4,0.3,0.8,0.7,0.9,1.2c0.1,0.6,0.2,1.2,0.1,1.8v3.5c0,0.3,0,0.5,0,0.8
				c0,0.1,0.1,0.2,0.1,0.2c0.1,0.1,0.1,0.1,0.2,0.1c0.2,0,0.3-0.1,0.5-0.4l0.3,0.2c-0.3,0.4-0.6,0.7-1,1c-0.3,0.2-0.8,0.3-1.2,0.3
				c-0.4,0-0.8-0.1-1.2-0.4C201.6,117.3,201.4,116.9,201.4,116.5z M201.4,115.8v-3c-0.7,0.4-1.3,0.9-1.7,1.4c-0.2,0.3-0.4,0.6-0.4,1
				c0,0.3,0.1,0.6,0.3,0.8c0.2,0.2,0.4,0.3,0.7,0.2C200.7,116.3,201.1,116.2,201.4,115.8L201.4,115.8z"/>
			<path class="st2" d="M213.9,117.9h-7.8v-0.2l4.9-8.1h-1.4c-0.4,0-0.9,0-1.3,0.2c-0.3,0.1-0.5,0.3-0.6,0.5
				c-0.2,0.4-0.4,0.9-0.5,1.3h-0.3v-2.7h7.5v0.3l-4.9,8h0.6c0.9,0.1,1.8-0.1,2.6-0.5c0.6-0.5,1.1-1.2,1.2-1.9h0.3L213.9,117.9z"/>
			<path class="st2" d="M219.1,108.9v7.1c0,0.4,0,0.8,0.2,1.2c0.2,0.2,0.5,0.3,0.9,0.3v0.4h-4.8v-0.3c0.3,0,0.6-0.1,0.9-0.3
				c0.2-0.4,0.2-0.8,0.2-1.2v-5.3c0.1-0.4,0-0.8-0.2-1.2c-0.2-0.2-0.5-0.3-0.9-0.3v-0.4H219.1z M217.8,104.6c0.4,0,0.8,0.1,1.1,0.4
				c0.3,0.3,0.4,0.6,0.4,1c0,0.4-0.2,0.7-0.4,1c-0.3,0.3-0.6,0.4-1,0.4c-0.4,0-0.7-0.2-1-0.4c-0.3-0.3-0.4-0.6-0.4-1
				c0-0.4,0.2-0.7,0.4-1C217,104.8,217.4,104.6,217.8,104.6L217.8,104.6z"/>
			<path class="st2" d="M225,108.9v1.2c0.4-0.4,0.8-0.8,1.3-1.1c0.4-0.2,0.9-0.3,1.4-0.3c0.5,0,1,0.2,1.4,0.5
				c0.4,0.3,0.6,0.7,0.8,1.2c0.1,0.7,0.2,1.4,0.2,2.1v3.5c0,0.4,0,0.9,0.2,1.3c0.2,0.2,0.5,0.3,0.8,0.3v0.4h-4.5v-0.3
				c0.3,0,0.6-0.2,0.7-0.4c0.1-0.4,0.2-0.8,0.1-1.2v-4c0-0.5,0-0.9-0.1-1.4c0-0.2-0.2-0.3-0.3-0.4c-0.1-0.1-0.3-0.2-0.5-0.2
				c-0.5,0-1.1,0.4-1.5,1.2v4.8c0,0.4,0,0.9,0.2,1.3c0.2,0.2,0.4,0.3,0.7,0.3v0.4h-4.5v-0.3c0.3,0,0.6-0.1,0.8-0.4
				c0.2-0.4,0.2-0.8,0.2-1.2v-5c0-0.4,0-0.9-0.2-1.3c-0.2-0.2-0.5-0.3-0.8-0.3v-0.5H225z"/>
			<path class="st2" d="M240.1,113.1h-4.9c0,1,0.4,2,1,2.8c0.4,0.5,1,0.8,1.6,0.8c0.4,0,0.7-0.1,1-0.3c0.4-0.3,0.7-0.7,1-1.2
				l0.3,0.2c-0.4,0.8-0.9,1.5-1.6,2.1c-0.6,0.4-1.3,0.6-2,0.6c-1.2,0.1-2.3-0.5-3-1.5c-0.6-0.9-0.9-1.9-0.8-3
				c-0.1-1.3,0.4-2.6,1.2-3.6c0.7-0.8,1.7-1.3,2.8-1.3c0.9,0,1.8,0.4,2.4,1.1C239.8,110.8,240.1,111.9,240.1,113.1z M237.8,112.4
				c0-0.7,0-1.4-0.2-2.1c-0.1-0.3-0.3-0.6-0.5-0.9c-0.1-0.1-0.3-0.2-0.5-0.2c-0.3,0-0.6,0.2-0.8,0.5c-0.4,0.7-0.6,1.5-0.6,2.3v0.3
				H237.8z"/>
		</g>
	</g>
</g>
<g>
	<path class="st2" d="M418.9,102.7c-0.5,0.5-1.1,0.7-1.7,0.7c-0.6,0-1.2-0.2-1.7-0.7c-0.7-0.7-0.7-1.8-0.7-2.9c0-1,0.1-2.2,0.7-2.9
		c0.5-0.4,1-0.7,1.7-0.7c0.7,0,1.2,0.2,1.7,0.7v0c0.7,0.7,0.7,1.8,0.7,2.9C419.7,100.9,419.6,102,418.9,102.7 M417.2,94.7
		c-1.1,0-2.1,0.4-2.8,1.1c-1.1,1.1-1.3,2.7-1.3,4c0,1.3,0.1,2.9,1.3,4c0.7,0.7,1.7,1.1,2.8,1.1c1.1,0,2.1-0.4,2.8-1.1
		c1.1-1.1,1.3-2.7,1.3-4c0-1.3-0.1-2.9-1.3-4C419.3,95.1,418.3,94.7,417.2,94.7 M426,94.7c-1,0-1.7,0.4-2.4,0.9v-0.8h-1.6v10h1.6
		v-6.1c0-1.6,0.8-2.4,2.3-2.4c1.5,0,2.2,0.8,2.2,2.4v6.1h1.6v-6.3c0-1.2-0.4-2.2-1.1-2.8C428,95.1,427.1,94.7,426,94.7 M398.4,98.4
		h6.2v-1.6h-6.2V92h7.3v-1.6h-9v14.4h9v-1.6h-7.3V98.4z M384.9,94.7c-0.9,0-1.7,0.4-2.4,0.9v-5.2h-1.6v14.4h1.6v-6.1
		c0-1.6,0.8-2.4,2.3-2.4c1.5,0,2.2,0.8,2.2,2.4v6.1h1.7v-6.3c0-1.1-0.4-2.1-1-2.8C386.9,95.1,386,94.7,384.9,94.7 M412.1,102.3
		c-0.7,0.8-1.2,1.1-2.1,1.1c-0.9,0-1.7-0.4-2.2-1.1c-0.4-0.6-0.6-1.3-0.6-2.5c0-1.2,0.2-1.9,0.6-2.5c0.5-0.7,1.3-1.1,2.2-1.1
		c0.9,0,1.4,0.3,2.1,1.1l0.2,0.2l1.2-1.1l-0.2-0.2c-1-1.1-1.9-1.5-3.3-1.5c-2.7,0-4.4,2-4.4,5.1c0,3.1,1.7,5.1,4.4,5.1
		c1.4,0,2.3-0.4,3.3-1.5l0.2-0.2l-1.2-1.1L412.1,102.3z M436,102.7c-0.5,0.5-1.1,0.7-1.7,0.7c-0.7,0-1.2-0.2-1.7-0.7
		c-0.7-0.7-0.7-1.8-0.7-2.9c0-1.1,0.1-2.2,0.7-2.9c0.5-0.5,1-0.7,1.7-0.7c0.7,0,1.2,0.2,1.7,0.7l0,0c0.7,0.7,0.7,1.8,0.7,2.9
		C436.8,100.9,436.7,102,436,102.7 M434.3,94.7c-1.1,0-2.1,0.4-2.8,1.1c-1.1,1.1-1.3,2.7-1.3,4c0,1.3,0.1,2.9,1.3,4
		c0.7,0.7,1.7,1.1,2.8,1.1c1.1,0,2.1-0.4,2.8-1.1c1.1-1.1,1.3-2.7,1.3-4c0-1.3-0.1-2.8-1.3-4C436.4,95.1,435.4,94.7,434.3,94.7
		 M462.9,102.3c-0.7,0.8-1.3,1.1-2.1,1.1c-0.9,0-1.7-0.4-2.2-1.1c-0.4-0.6-0.6-1.3-0.6-2.5c0-1.2,0.2-1.8,0.6-2.5
		c0.5-0.7,1.3-1.1,2.2-1.1c0.9,0,1.4,0.3,2.1,1.1l0.2,0.2l1.2-1.1l-0.2-0.2c-1-1.1-1.9-1.5-3.3-1.5c-2.7,0-4.4,2-4.4,5.1
		c0,3.1,1.7,5.1,4.4,5.1c1.4,0,2.3-0.4,3.3-1.5l0.2-0.2l-1.2-1.1L462.9,102.3z M484.9,102.7c-0.5,0.5-1.1,0.7-1.7,0.7
		c-0.6,0-1.2-0.3-1.7-0.7c-0.7-0.7-0.7-1.8-0.7-2.9c0-1,0.1-2.2,0.7-2.9c0.5-0.4,1-0.7,1.7-0.7c0.7,0,1.2,0.2,1.7,0.7v0
		c0.7,0.7,0.7,1.8,0.7,2.9C485.7,100.9,485.6,102,484.9,102.7 M483.3,94.7c-1.1,0-2.1,0.4-2.8,1.1c-1.1,1.1-1.3,2.7-1.3,4
		c0,1.3,0.1,2.9,1.3,4c0.7,0.7,1.7,1.1,2.8,1.1c1.1,0,2.1-0.4,2.8-1.1c1.1-1.1,1.3-2.7,1.3-4c0-1.3-0.1-2.8-1.3-4
		C485.3,95.1,484.4,94.7,483.3,94.7 M500.7,100.9c0,1.6-0.8,2.5-2.3,2.5c-1.8,0-2.2-1.3-2.2-2.5v-6.1h-1.7v1l-0.1-0.1
		c-0.7-0.7-1.4-1-2.5-1c-1,0-1.8,0.4-2.4,1v-0.8H488v10h1.6v-6.1c0-1.2,0.7-2.5,2.2-2.5c0.7,0,1,0.1,1.5,0.6l0.2,0.2l1.1-1.1v5.1
		c0,1.2,0.4,2.2,1.1,2.8c0.7,0.7,1.6,1,2.7,1c1,0,1.7-0.4,2.4-0.9v0.8h1.6v-10h-1.6V100.9z M516.5,95.7c-0.7-0.6-1.6-1-2.7-1
		c-1.3,0-2.4,0.6-3.2,1.6c-0.7-1-1.7-1.6-3-1.6c-0.9,0-1.7,0.4-2.4,0.9v-0.8h-1.6v10h1.6v-6.1c0-1.6,0.8-2.4,2.3-2.4
		c1.5,0,2.2,0.8,2.2,2.4v6.1h1.7v-6.3c0-1.4,0.9-2.3,2.3-2.3c1.5,0,2.2,0.8,2.2,2.4v6.1h1.6v-6.3C517.5,97.4,517.2,96.4,516.5,95.7
		 M454,92.3h1.9v-1.9H454V92.3z M454.1,104.8h1.6v-10h-1.6V104.8z M472.5,92h7.3v-1.6h-9v14.4h1.7v-6.2h6.2V97h-6.2V92z M378.3,91.9
		h-1.6v3h-1.3v1.4h1.3v5.8c0,1.7,1,2.8,2.6,2.8h1.2v-1.5h-1c-0.8,0-1.1-0.4-1.1-1.2v-5.8h2.1v-1.4h-2.1V91.9z M449.3,94.7
		c-1.3,0-2.4,0.6-3.2,1.6c-0.7-1-1.7-1.6-3-1.6c-0.9,0-1.7,0.4-2.4,0.9v-0.8h-1.6v10h1.6v-6.1c0-1.6,0.8-2.4,2.3-2.4
		c1.5,0,2.2,0.8,2.2,2.4v6.1h1.6v-6.3c0-1.4,0.9-2.3,2.3-2.3c1.5,0,2.2,0.8,2.2,2.4v6.1h1.6v-6.3c0-1.2-0.4-2.2-1.1-2.8
		C451.3,95.1,450.3,94.7,449.3,94.7 M355.1,90.4c0,0-2.2,8.9-2.6,10.9c-0.5-2-2.9-10.9-2.9-10.9h-1.6c0,0-2.4,8.9-2.9,10.9
		c-0.5-2-2.7-10.9-2.7-10.9h-1.8l3.6,14.4h1.6c0,0,2.5-9.1,3-11c0.5,1.9,3,11,3,11h1.6l3.6-14.4H355.1z M305.9,94.7
		c-1.3,0-2.4,0.6-3.2,1.6c-0.7-1-1.7-1.6-3-1.6c-0.9,0-1.7,0.4-2.4,0.9v-0.8h-1.6v10h1.6v-6.1c0-1.6,0.8-2.4,2.3-2.4
		c1.5,0,2.2,0.8,2.2,2.4v6.1h1.6v-6.3c0-1.4,0.9-2.3,2.3-2.3c1.5,0,2.2,0.8,2.2,2.4v6.1h1.6v-6.3c0-1.2-0.4-2.2-1.1-2.8
		C307.9,95.1,307,94.7,305.9,94.7 M292.6,102.7c-0.5,0.5-1.1,0.7-1.7,0.7c-0.6,0-1.2-0.2-1.7-0.7c-0.7-0.7-0.7-1.8-0.7-2.9
		c0-1,0.1-2.2,0.7-2.9c0.4-0.5,1-0.7,1.7-0.7c0.7,0,1.3,0.2,1.7,0.7l0,0c0.7,0.7,0.7,1.8,0.7,2.9C293.4,100.9,293.3,102,292.6,102.7
		 M290.9,94.7c-1.1,0-2.1,0.4-2.8,1.1c-1.1,1.1-1.3,2.7-1.3,4c0,1.3,0.1,2.9,1.3,4c0.7,0.7,1.7,1.1,2.8,1.1c1.1,0,2.1-0.4,2.8-1.1
		c1.1-1.1,1.3-2.7,1.3-4c0-1.3-0.1-2.9-1.3-4C293,95.1,292.1,94.7,290.9,94.7 M338,94.7c-1,0-1.7,0.3-2.4,0.9v-0.8H334v10h1.6v-6.1
		c0-1.6,0.8-2.4,2.3-2.4s2.2,0.8,2.2,2.4v6.1h1.6v-6.3c0-1.2-0.4-2.2-1.1-2.8C340,95.1,339.1,94.7,338,94.7 M370.1,101.2
		c0,0.8-0.1,1.3-0.4,1.5c-0.5,0.5-1.2,0.6-2.1,0.6c-1.8,0-2.1-0.7-2.1-1.5c0-0.7,0.2-1.5,2-1.5h2.6V101.2z M367.8,94.7
		c-1.7,0-2.7,0.4-3.5,1.6l-0.2,0.2l1.2,1l0.2-0.3c0.5-0.8,1.1-1,2.3-1c1.6,0,2.3,0.6,2.3,1.9v0.7h-2.7c-2.2,0-3.6,1.1-3.6,3
		c0,0.8,0.3,1.5,0.8,2c0.7,0.7,1.5,1,3,1c1.1,0,1.8-0.3,2.5-0.8v0.7h1.6v-6.7C371.7,96.6,371,94.7,367.8,94.7 M330.9,102.7
		c-0.5,0.5-1.1,0.7-1.7,0.7c-0.6,0-1.2-0.3-1.7-0.7c-0.7-0.7-0.7-1.8-0.7-2.9c0-1,0.1-2.2,0.7-2.9c0.4-0.5,1-0.7,1.7-0.7
		c0.7,0,1.2,0.2,1.7,0.7v0c0.7,0.7,0.7,1.8,0.7,2.9C331.7,100.9,331.6,102,330.9,102.7 M329.3,94.7c-1.1,0-2.1,0.4-2.8,1.1
		c-1.1,1.1-1.2,2.7-1.2,4c0,1.3,0.1,2.9,1.2,4c0.7,0.7,1.7,1.1,2.8,1.1c1.1,0,2.1-0.4,2.8-1.1c1.1-1.1,1.3-2.7,1.3-4
		c0-1.3-0.1-2.9-1.3-4C331.3,95.1,330.4,94.7,329.3,94.7 M374.4,102V90.4h-1.6v11.7c0,1.7,1,2.7,2.6,2.7h1.2v-1.5h-1
		C374.7,103.3,374.4,103,374.4,102 M320.9,94.7c-1.3,0-2.4,0.6-3.1,1.6c-0.7-1-1.7-1.6-3-1.6c-1,0-1.8,0.4-2.4,0.9v-0.8h-1.6v10h1.6
		v-6.1c0-1.6,0.8-2.4,2.3-2.4c1.5,0,2.2,0.8,2.2,2.4v6.1h1.6v-6.3c0-1.4,0.9-2.3,2.3-2.3c1.5,0,2.2,0.8,2.2,2.4v6.1h1.6v-6.3
		c0-1.2-0.4-2.2-1.1-2.8C322.9,95.1,322,94.7,320.9,94.7 M281.6,91.9c1.7,0,2.9,1.1,3.3,2.8L285,95h1.7l-0.1-0.4
		c-0.5-2.6-2.4-4.3-5-4.3c-1.4,0-2.7,0.5-3.7,1.5c-1.4,1.4-1.4,2.8-1.4,5.8c0,3,0,4.4,1.4,5.8c0.9,1,2.3,1.5,3.7,1.5
		c2.6,0,4.5-1.6,5-4.3l0.1-0.4H285l-0.1,0.3c-0.4,1.7-1.6,2.8-3.3,2.8c-0.9,0-1.7-0.3-2.4-1c-0.9-0.9-1-1.9-1-4.8
		c0-2.9,0.1-3.9,1-4.8C279.9,92.2,280.7,91.9,281.6,91.9 M357.1,97.6c0.3-0.8,1.2-1.4,2.1-1.4c1,0,1.8,0.5,2.1,1.4
		c0,0,0.2,0.9,0.2,1.3h-4.7C356.9,98.5,357.1,97.6,357.1,97.6 M361.8,102.4c-0.7,0.8-1.4,1-2.3,1c-2.1,0-2.6-1.6-2.7-3h6.4v-0.8
		c0-3-1.5-4.9-4.1-4.9c-2.5,0-4,1.9-4,5.1c0,3.3,1.5,5.1,4.3,5.1c1.7,0,2.6-0.6,3.6-1.5l0.3-0.3l-1.3-1L361.8,102.4z"/>
	<path class="st2" d="M390,48.6c0,21.1,18.5,38.2,41.3,38.2c22.8,0,41.2-17.1,41.3-38.2c0-21.1-18.5-38.3-41.3-38.3
		C408.4,10.4,390,27.5,390,48.6 M389.3,48.6c0-21.5,18.8-38.9,42-39c23.2,0,42,17.4,42,39c0,21.5-18.8,38.9-42,39
		C408.1,87.5,389.3,70.2,389.3,48.6"/>
	<path class="st2" d="M403.7,48.6c0,21.2,12.5,38.2,27.6,38.2c15.1,0,27.6-17,27.6-38.2c0-21.2-12.5-38.2-27.6-38.2
		C416.1,10.4,403.7,27.4,403.7,48.6 M402.9,48.6c0-21.4,12.6-39,28.3-39c15.7,0,28.3,17.5,28.3,39c0,21.4-12.6,38.9-28.3,39
		C415.5,87.6,402.9,70.1,402.9,48.6"/>
	<polygon class="st2" points="430.9,87.2 430.9,48.6 430.9,10 431.6,10 431.6,48.6 431.6,87.2 	"/>
	<rect x="393.5" y="32" class="st2" width="75.4" height="0.8"/>
	<rect x="392.9" y="63.5" class="st2" width="76.6" height="0.8"/>
	<rect x="389.6" y="48.3" class="st2" width="83" height="0.7"/>
	<polygon class="st2" points="355.7,18.9 352.5,18.9 352.5,17.7 370.5,17.7 370.5,18.9 366.7,18.9 378.5,65.9 378.6,65.9 
		392.7,18.9 388.6,18.9 388.6,17.8 397.8,17.7 397.8,19 394.1,19 375.9,79.5 372.3,79.4 	"/>
	<polygon class="st2" points="367.8,41.6 353.3,79.4 349.7,79.4 333.4,18.8 330,18.8 330,17.6 347.8,17.7 347.8,18.8 344.2,18.8 
		356.2,67.8 356.4,67.8 367.2,39.7 	"/>
	<path class="st2" d="M326,35.5c-0.6-1.8-1.4-3.8-2.2-5.8c-0.9-2-2-3.9-3.4-5.6c-1.4-1.7-3.1-3.1-5.1-4.2c-2-1.1-4.6-1.6-7.6-1.6
		c-4.1,0-7.3,0.8-9.6,2.3c-2.3,1.5-4.1,3.6-5.3,6.3c-1.2,2.7-2,5.9-2.3,9.6c-0.3,3.7-0.5,7.8-0.5,12.2c0,5.8,0.3,10.6,1,14.4
		c0.7,3.8,1.7,6.8,3.1,9.1c1.4,2.2,3.3,3.8,5.5,4.7c2.3,0.9,5,1.3,8.1,1.3c2.5,0,4.8-0.5,6.8-1.5c2-1,3.8-2.3,5.4-4
		c1.6-1.6,2.9-3.5,3.9-5.7c1.1-2.1,1.8-4.3,2.3-6.6h1.3v17.8h-1.3c-0.3-0.7-0.6-1.1-1-1.4c-0.4-0.3-1-0.4-1.8-0.4
		c-0.7,0-1.5,0.2-2.6,0.5c-1.1,0.3-2.3,0.6-3.7,1c-1.4,0.4-2.9,0.7-4.5,1c-1.6,0.3-3.3,0.5-5.1,0.5c-4.1,0-8-0.8-11.8-2.4
		c-3.8-1.6-7.1-3.8-10-6.5c-2.9-2.8-5.2-6-6.9-9.8c-1.7-3.7-2.6-7.8-2.6-12.2c0-4.8,1-9.1,2.9-12.9c1.9-3.9,4.4-7.2,7.4-9.9
		c3-2.7,6.4-4.8,10.1-6.3c3.7-1.5,7.4-2.2,10.9-2.2c1.8,0,3.5,0.2,5,0.5c1.5,0.3,3,0.7,4.3,1c1.3,0.4,2.5,0.7,3.6,1
		c1.1,0.3,2,0.5,2.7,0.5c0.8,0,1.4-0.1,1.8-0.3c0.4-0.2,0.7-0.7,0.8-1.5h1.3v17.1H326z"/>
	<path class="st2" d="M468,19.5v-1.2h49.6v14.3h-1.1c-0.8-2-1.6-3.8-2.6-5.5c-0.9-1.6-2-3-3.2-4.2c-1.2-1.1-2.7-2-4.3-2.6
		c-1.7-0.6-3.6-0.9-5.8-0.9h-12.7v28.4h4.7c2.1,0,3.8-0.3,5.2-0.9c1.4-0.6,2.6-1.4,3.6-2.5c0.9-1.1,1.7-2.4,2.4-3.9
		c0.6-1.5,1.1-3.3,1.5-5.2h1.1v26.1h-1.1c-0.4-1.6-0.8-3.2-1.4-4.7c-0.5-1.5-1.2-2.8-2.1-4c-0.9-1.1-2-2.1-3.3-2.7
		c-1.3-0.7-2.9-1-4.9-1h-5.6v27.7h7.8V78H468v-1.2h7.7V19.5H468z"/>
	<path class="st3" d="M457.4,18.3v14.3h-1.1c-0.3-1-0.8-2.2-1.4-3.6c-0.7-1.5-1.6-2.9-2.8-4.3c-1.2-1.4-2.8-2.6-4.7-3.6
		c-1.9-1-4.2-1.5-7-1.5h-15.4V48h4.7c2.1,0,3.8-0.3,5.2-0.9c1.4-0.6,2.6-1.4,3.6-2.5c1-1.1,1.7-2.4,2.4-3.9c0.6-1.5,1.1-3.3,1.5-5.1
		h1.1v26.1h-1.1c-0.4-1.6-0.9-3.2-1.4-4.7c-0.5-1.5-1.2-2.8-2.1-4c-0.9-1.1-2-2.1-3.3-2.7c-1.3-0.7-2.9-1-4.9-1h-5.6v27.7h13.8
		c2.6,0,4.9-0.4,7-1.3c2.1-0.9,3.9-2.1,5.5-3.6c1.6-1.6,2.9-3.4,4-5.5c1.1-2.1,1.9-4.3,2.4-6.7h1.1V78h-54.4v-1.2h8.6V19.5h-7.7
		v-1.2H457.4z"/>
	<path class="st3" d="M370,119.9c-1.6,0-2.7-0.4-3.7-1.4l1-1c0.8,0.8,1.6,1,2.6,1c1.4,0,2.1-0.6,2.1-1.6c0-0.4-0.1-0.8-0.4-1.1
		c-0.3-0.2-0.5-0.3-1.1-0.4l-1.2-0.2c-0.8-0.1-1.5-0.4-2-0.8c-0.5-0.5-0.8-1.1-0.8-2c0-1.8,1.3-3,3.5-3c1.4,0,2.3,0.4,3.2,1.2l-1,1
		c-0.6-0.6-1.4-0.8-2.3-0.8c-1.2,0-1.9,0.7-1.9,1.6c0,0.4,0.1,0.7,0.4,1c0.3,0.2,0.7,0.4,1.2,0.5l1.2,0.2c1,0.1,1.5,0.4,1.9,0.8
		c0.6,0.5,0.8,1.2,0.8,2.1C373.7,118.8,372.2,119.9,370,119.9"/>
	<path class="st3" d="M379.4,119.9c-2.1,0-3.7-1.4-3.7-3.6v-6.9h1.6v6.8c0,1.4,0.8,2.2,2.1,2.2c1.3,0,2.2-0.9,2.2-2.2v-6.8h1.6v6.9
		C383.1,118.5,381.5,119.9,379.4,119.9"/>
	<polygon class="st3" points="393.2,109.5 390.2,115.9 387.2,109.5 385.6,109.5 385.6,119.8 387.2,119.8 387.2,112.9 389.7,118 
		390.8,118 393.2,112.9 393.2,119.8 394.8,119.8 394.8,109.5 	"/>
	<polygon class="st3" points="405,109.5 402,115.9 399,109.5 397.4,109.5 397.4,119.8 399,119.8 399,112.9 401.5,118 402.6,118 
		405,112.9 405,119.8 406.6,119.8 406.6,109.5 	"/>
	<polygon class="st3" points="409.3,109.5 409.3,119.8 415.9,119.8 415.9,118.4 410.8,118.4 410.8,115.3 415.1,115.3 415.1,113.9 
		410.8,113.9 410.8,110.9 415.9,110.9 415.9,109.5 	"/>
	<path class="st3" d="M421.9,110.9h-2.3v3.2h2.3c1,0,1.8-0.6,1.8-1.6C423.7,111.5,423,110.9,421.9,110.9 M423.7,119.8l-2.2-4.4h-2
		v4.4H418v-10.4h4c2,0,3.2,1.3,3.2,3c0,1.5-0.9,2.4-2.1,2.8l2.4,4.6H423.7z"/>
	<line class="st4" x1="349.1" y1="115.4" x2="276.5" y2="115.4"/>
	<line class="st4" x1="520.7" y1="115.4" x2="448.1" y2="115.4"/>
</g>
</svg>
