<?xml version="1.0" encoding="utf-8"?>
<!-- Generator: Adobe Illustrator 22.0.1, SVG Export Plug-In . SVG Version: 6.00 Build 0)  -->
<svg version="1.1" id="Capa_1" xmlns="http://www.w3.org/2000/svg" xmlns:xlink="http://www.w3.org/1999/xlink" x="0px" y="0px"
	 viewBox="0 0 512 512" style="enable-background:new 0 0 512 512;" xml:space="preserve">
<style type="text/css">
	.st0{fill:#3F3FA0;}
</style>
<g>
	<path class="st0" d="M4.5,507.5c3,3,7,4.5,10.9,4.5s7.9-1.5,10.9-4.5L256,277.8l229.6,229.6c3,3,7,4.5,10.9,4.5
		c4,0,7.9-1.5,10.9-4.5c6-6,6-15.8,0-21.8L277.8,256L507.5,26.4c6-6,6-15.8,0-21.8c-6-6-15.8-6-21.8,0L256,234.2L26.4,4.5
		c-6-6-15.8-6-21.8,0c-6,6-6,15.8,0,21.8L234.2,256L4.5,485.6C-1.5,491.7-1.5,501.4,4.5,507.5z"/>
</g>
</svg>
